<svg xmlns="http://www.w3.org/2000/svg" width="73.428" height="15.491" viewBox="0 0 73.428 15.491">
  <g id="Group_74" data-name="Group 74" transform="translate(-185.933 -937.655)">
    <g id="Group_28" data-name="Group 28" transform="translate(185.933 937.655)">
      <rect id="Rectangle_14" data-name="Rectangle 14" width="15.648" height="3.912" rx="1.956" transform="translate(18.007 3.912) rotate(180)" fill="#3c81f6"/>
      <rect id="Rectangle_9" data-name="Rectangle 9" width="10.988" height="3.912" rx="1.956" transform="translate(15.677 15.491) rotate(180)" fill="#f04444"/>
      <rect id="Rectangle_10" data-name="Rectangle 10" width="12.952" height="3.912" rx="1.956" transform="translate(12.952 9.702) rotate(180)" fill="#f69e0b"/>
      <path id="Path_15" data-name="Path 15" d="M1.38.224a.5.5,0,0,1,.838,0L3.511,2.16a.5.5,0,0,1-.419.784H.5A.5.5,0,0,1,.086,2.16Z" transform="translate(17.604 5.932) rotate(90)" fill="#141313" opacity="0.897"/>
    </g>
    <path id="Path_14" data-name="Path 14" d="M15.506-108.5a4.842,4.842,0,0,1,3.537,1.415,4.692,4.692,0,0,1,1.436,3.476,4.692,4.692,0,0,1-1.436,3.476,4.842,4.842,0,0,1-3.537,1.415H12.946v4.787H10.075V-108.5Zm0,7.1a2.007,2.007,0,0,0,1.519-.635,2.193,2.193,0,0,0,.6-1.572,2.184,2.184,0,0,0-.6-1.582,2.024,2.024,0,0,0-1.519-.624H12.946v4.413Zm14.565-2.935h2.684V-93.93H30.071v-1.228a4.084,4.084,0,0,1-3.392,1.519,4.713,4.713,0,0,1-3.568-1.592,5.5,5.5,0,0,1-1.488-3.9,5.5,5.5,0,0,1,1.488-3.9,4.713,4.713,0,0,1,3.568-1.592,4.084,4.084,0,0,1,3.392,1.519ZM25.119-97.01a2.79,2.79,0,0,0,2.06.812,2.806,2.806,0,0,0,2.07-.822,2.86,2.86,0,0,0,.822-2.113,2.86,2.86,0,0,0-.822-2.113,2.806,2.806,0,0,0-2.07-.822,2.772,2.772,0,0,0-2.06.822,2.88,2.88,0,0,0-.811,2.113A2.916,2.916,0,0,0,25.119-97.01Zm15.647,3.372a5.3,5.3,0,0,1-3.922-1.582,5.334,5.334,0,0,1-1.571-3.913,5.334,5.334,0,0,1,1.571-3.913,5.3,5.3,0,0,1,3.922-1.582,5.39,5.39,0,0,1,2.767.729,4.843,4.843,0,0,1,1.893,1.957l-2.31,1.353a2.355,2.355,0,0,0-.947-1.02,2.75,2.75,0,0,0-1.425-.375,2.689,2.689,0,0,0-2,.8,2.8,2.8,0,0,0-.791,2.05,2.77,2.77,0,0,0,.791,2.029,2.689,2.689,0,0,0,2,.8,2.852,2.852,0,0,0,1.446-.364,2.294,2.294,0,0,0,.947-1.01l2.33,1.332a5.213,5.213,0,0,1-1.935,1.967A5.332,5.332,0,0,1,40.765-93.638Zm8.843-4.392a2.666,2.666,0,0,0,2.934,1.957,2.745,2.745,0,0,0,2.33-1.041l2.164,1.249A5.16,5.16,0,0,1,52.5-93.638,5.6,5.6,0,0,1,48.36-95.2,5.334,5.334,0,0,1,46.8-99.133a5.382,5.382,0,0,1,1.54-3.924,5.294,5.294,0,0,1,3.953-1.572,4.959,4.959,0,0,1,3.776,1.582,5.494,5.494,0,0,1,1.488,3.913,6.289,6.289,0,0,1-.1,1.1Zm-.042-2.081h5.306a2.516,2.516,0,0,0-.947-1.582,2.713,2.713,0,0,0-1.633-.52,2.823,2.823,0,0,0-1.789.552A2.636,2.636,0,0,0,49.567-100.112Z" transform="translate(201.804 1046.47)" fill="#282828"/>
  </g>
</svg>
